<svg id="a3e126c5-02af-41e6-9fa3-fc5bdadc0326" data-name="Layer 1" xmlns="http://www.w3.org/2000/svg" viewBox="0 0 1478.66 856.38"><defs><style>.b0a6428b-e6ee-4b38-bee6-44efc94efebd{fill:#fff;}.ae171b74-f948-448c-b985-a8c1cb36f615{fill:#a74482;}</style></defs><path class="b0a6428b-e6ee-4b38-bee6-44efc94efebd" d="M133.43,359.81a154.36,154.36,0,0,1-55,1.32q-26.79-4.31-45.65-18.45A59.88,59.88,0,0,1,9.22,305.15a53.81,53.81,0,0,1-.51-16.42q1.24-12.17,5.66-13.05,6.62-1.32,8.11,6.19a29.06,29.06,0,0,1-.1,8.73,32.62,32.62,0,0,0,.26,10.5,49.09,49.09,0,0,0,20,31.13q16.09,11.72,38.55,15A132,132,0,0,0,126.56,346q49.86-9.93,80-40.7a115.64,115.64,0,0,0,24.09-35.76q8.45-19.8,4.49-39.67-3.6-18.09-15-28.21t-29-15.56a243.36,243.36,0,0,0-39.75-8.38q-63.27-9-69.15-38.54Q79,123.34,88.05,106.4a129.3,129.3,0,0,1,24-31.62A164.29,164.29,0,0,1,141.76,51.2a229.22,229.22,0,0,1,77.69-31.52Q242.83,15,254.7,23.91t15,24.77a52.2,52.2,0,0,1-1.22,25,64.59,64.59,0,0,1-12.16,23.06q-9.54,12-16.6,13.4c-5,1-8-.86-8.91-5.57-.53-2.65.42-4.82,2.83-6.53q26.58-20.88,21.4-46.93-2.28-11.46-9.78-15.71t-22.94-1.17a185.66,185.66,0,0,0-30.94,9.37A244,244,0,0,0,157.72,60a192.93,192.93,0,0,0-29.14,21.86,126.54,126.54,0,0,0-22.93,26.59Q97.11,122,99.4,133.5q4.83,24.27,54.51,29.53,85.88,9.53,96.4,62.49a74.27,74.27,0,0,1-1,32.78,115.48,115.48,0,0,1-13.36,32,154.5,154.5,0,0,1-20.54,27,133.16,133.16,0,0,1-37.45,27.41A179.45,179.45,0,0,1,133.43,359.81Z" transform="translate(-8.32 -6.46)"/><path class="b0a6428b-e6ee-4b38-bee6-44efc94efebd" d="M430.1,296.64q-21.62,4.31-27.86-27-3.33-16.77-.13-42.18-41,72.85-71.47,78.91-25.17,5-31.22-25.44-2.28-11.47-1.74-28.33a279.46,279.46,0,0,1,3.52-35.34,332.06,332.06,0,0,1,7.49-35q4.51-16.49,10.18-27.26a8.56,8.56,0,0,1,6-4.41,7.89,7.89,0,0,1,4.72.67,5.39,5.39,0,0,1,3.13,4.2c.35,1.76-.18,4.47-1.59,8.11q-13.36,36.63-16.92,62.56-5.06,29.91-1,50.21,3.78,19,13.49,17.05,6.17-1.23,15.1-9.43a177.1,177.1,0,0,0,17.93-19.4q9-11.19,15.38-20.72A386,386,0,0,0,404.88,186q5.49-13.93,9.56-26.91a255.25,255.25,0,0,0,6.82-26.82,62.53,62.53,0,0,1,2.31-8,5.21,5.21,0,0,1,4.15-3.35q9.27-1.84,10.67,5.22c.59,2.94,0,5.21-1.86,6.79q-26.83,100.32-20,134.75c1.23,6.17,2.68,10.4,4.36,12.66a6.39,6.39,0,0,0,6.92,2.53q6.18-1.23,17.62-11.77t25.85-30.38l37.91-51.59q2.82-4.23,5.91-4.85,7.07-1.39,8.38,5.22,1.14,5.75-21.65,36.43-9.73,13.4-17.5,22.75t-14.58,16.66a238.52,238.52,0,0,1-23.19,21.82Q436.28,295.42,430.1,296.64Z" transform="translate(-8.32 -6.46)"/><path class="b0a6428b-e6ee-4b38-bee6-44efc94efebd" d="M522.7,277.76q-24.72,4.92-28-11.41-2-10.16,3.25-21.75a100.11,100.11,0,0,1,13.74-22A104.27,104.27,0,0,1,528.15,206a44,44,0,0,1,6.76-4.1,29.59,29.59,0,0,1,7.46-2.86q3.52-.7,4,1.94.45,2.22-3.89,5.83-18.36,13.74-26.94,29.45t-6.91,24.08q1.59,8,15.27,5.22,11.46-2.28,23.79-10.7a121.18,121.18,0,0,0,22.61-20.1,104.83,104.83,0,0,0,16.13-23.85q5.84-12.18,3.91-21.89A19.1,19.1,0,0,0,583.82,178q-5.25-4.46-15-5.26l-30.89-3q-11.73-1.33-17.73-6.11a19.69,19.69,0,0,1-7.4-11.83q-2.64-13.24,5.19-25.81a71.52,71.52,0,0,1,21.6-21.73,77.58,77.58,0,0,1,27.9-12q14.12-2.8,26.07,1.92t14.24,16.21a22.64,22.64,0,0,1-1.29,13.1q-2.61,6.5-7.47,7.46-7.5,1.48-8.73-4.69-.43-2.2,1.33-6a11.17,11.17,0,0,0,1.15-6.88q-2.62-13.24-22.93-9.2a55.9,55.9,0,0,0-20.93,9,53.57,53.57,0,0,0-15.46,15.69q-5.56,8.92-3.81,17.74t20.46,10.61l30,3.2q13.59,1.43,19.8,7.3a26.21,26.21,0,0,1,7.89,14.26q3.94,19.86-16.11,45.88Q559.32,270.47,522.7,277.76Z" transform="translate(-8.32 -6.46)"/><path class="b0a6428b-e6ee-4b38-bee6-44efc94efebd" d="M667.65,238.36q-25.6,5.1-30.43-19.18-3.16-15.88.91-35.74A169.24,169.24,0,0,1,652,143.52a221.54,221.54,0,0,1,23.25-37.66,161.32,161.32,0,0,1,29-29.62q15.49-12,31.38-15.2,28.24-5.61,33.78,22.19,3.6,18.1-5.22,19.85-7.95,1.58-9.44-5.92a15.42,15.42,0,0,1,.27-6.71,17.46,17.46,0,0,0,.1-7.59q-2.46-12.35-19.23-9-26.93,5.35-59.36,54.48a187,187,0,0,0-14.24,27.61,168.39,168.39,0,0,0-9.73,30.62q-3.19,15.07-.74,27.44,2.37,11.92,15.62,9.28,11.46-2.28,23.08-11.93a171.41,171.41,0,0,0,19.84-19.09q16.51-18.44,31.81-47.63,2.39-4.14,6.1-10.84t8.49-15a7.36,7.36,0,0,1,4.86-3.26c4.7-.94,7.53,1,8.46,5.66l-11.76,28.49q-11.87,28.07-8.69,43.94,2.28,11.49,13.31,9.28,9.27-1.84,19.34-8.89a113.94,113.94,0,0,0,16.16-13.31,254.54,254.54,0,0,0,25-29.06q12.67-17,24-33.91a7.33,7.33,0,0,1,4.94-2.82q6.62-1.32,7.67,4,1,4.86-4,12.26-14.15,21.18-25.76,36.56a202.2,202.2,0,0,1-22.84,25.88,201.27,201.27,0,0,1-18.72,14.28q-11.31,7.75-27.19,10.92-21.63,4.31-26.2-18.65-1.75-8.82-.69-15Q702.07,231.52,667.65,238.36Z" transform="translate(-8.32 -6.46)"/><path class="b0a6428b-e6ee-4b38-bee6-44efc94efebd" d="M834.91,212q-7.06,1.41-8.21-4.33a12.68,12.68,0,0,1,.67-5.87c.73-2.44,1.4-4.48,2-6.13l23.83-87.79q15.22-57.16,14.09-62.91-1.23-6.16,5-7.41,8.38-1.67,10.14,7.16.61,3.09-1.34,14t-5.58,25q-6,25.07-10.63,38.82Q875,104.43,886,88t22.62-31.57q34.63-45,57.15-49.46,15.45-3.07,18.34,11.49,2.64,13.24-10.65,64.06-13.2,51.27-10.74,63.62,1.14,5.75,5.12,5a13.83,13.83,0,0,0,4-1.94,16.86,16.86,0,0,1,5.74-2.29q7.5-1.49,8.91,5.57,1.76,8.84-17.23,12.61-8.82,1.75-13.63-1.65T949.34,153q-4.22-21.19,8.8-68.74,13.11-47.11,11.35-55.95-1.05-5.3-5-4.5-9.72,1.93-28.09,22.56a489.46,489.46,0,0,0-38.7,49.92,405.08,405.08,0,0,0-34.13,61.39l-22.37,49A8.28,8.28,0,0,1,834.91,212Z" transform="translate(-8.32 -6.46)"/><path class="ae171b74-f948-448c-b985-a8c1cb36f615" d="M490.28,395.42q0-12.5,4.5-19.14t17.77-6.64a39.57,39.57,0,0,1,18.94,4.49,69.26,69.26,0,0,1,15.63,11.52,120,120,0,0,1,13.09,15q5.85,8,11.32,15a84.83,84.83,0,0,0,10.55,11.52q5.07,4.5,10.55,4.5a29.88,29.88,0,0,0,7.61-.79,46.15,46.15,0,0,0,7.23-2.73v-9.77q0-26.94-1.76-53.9T604,310.26q8.19,0,11.91,2.54t4.49,11.52l9.77,100.4c.52,0,1.62.06,3.32.19s2.79.2,3.32.2a83.55,83.55,0,0,0,30.08-5.86,145.7,145.7,0,0,0,28.9-15,162.28,162.28,0,0,0,25.2-20.9,184.21,184.21,0,0,0,19.72-23.44H745q0,9.76-6.25,19.34a99.07,99.07,0,0,1-16,18.55,166.4,166.4,0,0,1-22.07,17A236.72,236.72,0,0,1,676,428.82,233.8,233.8,0,0,1,652.39,439a105.78,105.78,0,0,1-18.75,5.28,8.51,8.51,0,0,0-4.68,4.29,21.57,21.57,0,0,0-1.57,6.06,56.87,56.87,0,0,0-.39,6.64v5.66a70.59,70.59,0,0,0-.78,7.23c-.26,3.52-.59,7.16-1,10.94s-.72,7.29-1,10.54-.53,5.67-.78,7.23a10.18,10.18,0,0,1-2.74,3.32,33.78,33.78,0,0,1-3.51,2.93,1.16,1.16,0,0,1-.78.39h-.4q-6.24,0-9-4.1A44.86,44.86,0,0,1,602.2,495q-2.16-6.25-4.3-13.67a59.4,59.4,0,0,0-6.44-14.46,41,41,0,0,0-11.92-12.3q-7.62-5.28-20.51-6.84-11.71-2-24-4.88a77.31,77.31,0,0,1-22.07-8.79,51.87,51.87,0,0,1-16.21-15.24Q490.28,409.48,490.28,395.42Zm19.93,3.12a21,21,0,0,0,5.85,14.85,47.15,47.15,0,0,0,14.65,10.35,81.66,81.66,0,0,0,18.56,6.05,86.92,86.92,0,0,0,16.79,2q0-6.25-5.66-14.26a93.72,93.72,0,0,0-13.67-15.24,84.45,84.45,0,0,0-16.8-11.91q-8.79-4.69-14.65-4.69a4.37,4.37,0,0,0-3.51,1.37,5.87,5.87,0,0,0-1.37,3.32c-.13,1.31-.19,2.73-.19,4.3Zm91,52.35a17.23,17.23,0,0,0,1.17,3.12,12.29,12.29,0,0,0,2,3.52A6,6,0,0,0,606.1,456a10.63,10.63,0,0,0,1.37-1.95v-.78a.78.78,0,0,1,.2-.59.81.81,0,0,0,.19-.58l-.39-.78v-.39a11,11,0,0,0-1.37-2c-.65-.78-1.24-1.17-1.75-1.17a4.66,4.66,0,0,0-3.13,3.13Z" transform="translate(-8.32 -6.46)"/><path class="b0a6428b-e6ee-4b38-bee6-44efc94efebd" d="M36.47,840.1q-8.84,1.75-10.5-6.63c-.29-1.47-.06-3.74.71-6.79s2-7.36,3.63-12.88L46.16,762q13-40.66,22.14-74.38t15.32-60.17Q101.71,545.41,94,506.56c-.36-1.76.48-4.06,2.52-6.92s4.22-4.51,6.58-5q5.3-1.05,7.31,9.1,5.72,28.69-3.44,91.07-4,23.74-8.69,46.23T87.71,684.92q14.42-26.73,30.41-52.4t34-50.35q53.1-74.34,83.12-80.32,19-3.78,23.9,20.94,5.26,26.48-7.07,100.51Q235.77,716.48,234.79,730q76-141.3,168.68-217.56,12.63-10.3,26.85-20.71t22.6-12.07q12.36-2.46,15.35,12.55a78.38,78.38,0,0,1,1,18.62A126.1,126.1,0,0,1,465.05,536L441.57,630.1q-3.29,13.5-7.13,29.87t-6.87,32.34q-3,16-4.66,28.45t-.42,18.67q1.41,7.05,7.14,5.92,8.83-1.76,20.18-15a279,279,0,0,0,23.55-32.67,75.9,75.9,0,0,1,4.73-7.37q3-4.28,6.14-4.89c4.7-.94,7.59,1.24,8.64,6.54a5.93,5.93,0,0,1-.31,3,27.39,27.39,0,0,1-3.05,5.43l-9.19,13.76q-4.6,6.87-8.57,12.25a200.45,200.45,0,0,1-20.59,22.22q-11,10.23-22.51,12.51-18.11,3.6-22.14-16.7-2.46-12.35,1.19-40.15t13.83-71.12l26.32-109.85a134.85,134.85,0,0,0,3.33-15.57,23.64,23.64,0,0,0,.13-6.22c-.35-1.77-1.26-2.5-2.73-2.21a26.45,26.45,0,0,0-4.41,2,109.59,109.59,0,0,0-11.93,8.11q-24.47,17.71-52.55,44.87a525.73,525.73,0,0,0-51.06,57Q310,635.19,295.84,656.35t-27.13,43.48q-13,22.32-28.47,50.63-4.43,7.75-6.15,10.63t-6.57,3.83q-7.52,1.5-9.09-6.45-1.67-8.38-.86-22.77a279.83,279.83,0,0,1,3.3-29.56l15.27-93.89q5.51-34.57,7-56.91t-.58-32.92q-1.76-8.82-9.26-7.34Q218.76,518,176.87,575,162.45,594.79,150,612.87t-22.45,34.75q-13.51,22-24.31,41.55T83,729.21Q73.53,749.69,64.15,774t-19.56,56.2Q41.76,839.05,36.47,840.1Z" transform="translate(-8.32 -6.46)"/><path class="b0a6428b-e6ee-4b38-bee6-44efc94efebd" d="M567.1,862.06q-26.93,5.36-33.24-26.42A126.66,126.66,0,0,1,535,781.28q.88-4.77,4.86-5.56,7.93-1.58,9.35,5.49a14.19,14.19,0,0,1-.18,4.85c-.36,2.06-.74,4.35-1.16,6.88a112.21,112.21,0,0,0-1.34,18.62,105.12,105.12,0,0,0,2.1,19.77q2.28,11.48,6.16,14.84a9.86,9.86,0,0,0,8.74,2.39q11.47-2.29,25-16t25.77-40a420.82,420.82,0,0,0,17-43.75q8.33-25,17.09-57.08,11.77-42.27,20.21-85.24-8.24,16.34-17.51,31.93a258.41,258.41,0,0,1-20.68,29.81q-30.4,38.64-54.67,43.46-29.13,5.79-35.8-27.75-2.37-11.91-1.08-29.61t5.38-41a17.85,17.85,0,0,0,.14-6.22,11.63,11.63,0,0,1,.31-5.34q4-16.85,16.55-39.07c1.82-3.12,3.62-4.86,5.38-5.21,4.42-.88,7.27,1.93,8.56,8.39q-30.25,71.64-21.56,115.33,3.69,18.54,18.25,15.64,16.32-3.25,41-31.56a273.21,273.21,0,0,0,31.24-43.61,374.71,374.71,0,0,0,23.48-48q6.8-16.49,10.53-28.93t4.25-16.68q.88-7.06,4.86-7.85,8.38-1.66,9.79,5.39.71,3.54-.8,13.24t-3.91,23q-3.46,19.51-10.64,52.59t-18.7,79q-14.35,57-31.6,94.84-12.65,28.66-30.27,49.61T567.1,862.06Z" transform="translate(-8.32 -6.46)"/><path class="b0a6428b-e6ee-4b38-bee6-44efc94efebd" d="M876.53,669.27q-40.17,8-72.73,0t-54.19-31.42q-21.66-23.45-29.11-61-7-35.29.55-67.56t28.17-62.49A276.9,276.9,0,0,1,828.41,371a296.87,296.87,0,0,1,103-41.6q27.35-5.44,50-.08t37.71,18.88q15.08,13.51,18.85,32.49a47.16,47.16,0,0,1-1.21,23.87,61.9,61.9,0,0,1-9.51,19.1q-5.84,7.59-10.24,8.46-3.54.71-7.72-1.9c-2.8-1.74-4.34-3.34-4.63-4.82q-.52-2.64,4.68-8.73a66.61,66.61,0,0,0,9.55-15.43q4.33-9.36,2-21.27a41.69,41.69,0,0,0-16.39-25.88q-13.23-10-33.78-13T925.38,343a237.77,237.77,0,0,0-91.25,39.49,275.24,275.24,0,0,0-70.27,71.11q-19.44,29.1-26.44,58.48t0,64.69q6.76,34,27.4,53.51t50.23,25.33q29.59,5.82,63.59-1,38.82-7.73,80.07-28.78,24.19-12.15,40-24.72t23.1-22.26q6.89-9.17,10.16-13.49t5.92-4.85c2-.41,3.35.71,3.88,3.36q.87,4.41-2.88,12a65.06,65.06,0,0,1-9,13.71q-13.08,15-34.79,29.18a408.43,408.43,0,0,1-43.89,25,337.17,337.17,0,0,1-38.18,15.63A299.5,299.5,0,0,1,876.53,669.27Z" transform="translate(-8.32 -6.46)"/><path class="b0a6428b-e6ee-4b38-bee6-44efc94efebd" d="M1099,608.94q-25.61,5.1-30.43-19.18-3.16-15.88.91-35.74a168.68,168.68,0,0,1,13.86-39.92,220.46,220.46,0,0,1,23.24-37.66,161.39,161.39,0,0,1,29-29.63q15.49-12,31.39-15.19,28.23-5.62,33.78,22.18,3.6,18.1-5.23,19.86-7.95,1.57-9.44-5.93a15.38,15.38,0,0,1,.27-6.7,17.31,17.31,0,0,0,.1-7.59q-2.46-12.36-19.23-9-26.92,5.35-59.36,54.48a186.49,186.49,0,0,0-14.24,27.61,168.3,168.3,0,0,0-9.73,30.61q-3.19,15.09-.74,27.45,2.37,11.91,15.62,9.28,11.46-2.28,23.09-11.94a172,172,0,0,0,19.83-19.08q16.51-18.44,31.81-47.63,2.38-4.14,6.1-10.85t8.49-15a7.39,7.39,0,0,1,4.86-3.26q7-1.41,8.47,5.65l-11.77,28.5q-11.86,28.07-8.69,43.94,2.28,11.47,13.32,9.28,9.26-1.85,19.33-8.9a112.59,112.59,0,0,0,16.16-13.31,253.52,253.52,0,0,0,25-29q12.68-17,24-33.91a7.31,7.31,0,0,1,4.94-2.82q6.61-1.32,7.67,4,1,4.86-4,12.26-14.14,21.16-25.76,36.56a202.88,202.88,0,0,1-22.84,25.88A199.94,199.94,0,0,1,1220,578.44q-11.31,7.75-27.19,10.91-21.63,4.3-26.2-18.64-1.75-8.84-.69-15Q1133.4,602.1,1099,608.94Z" transform="translate(-8.32 -6.46)"/><path class="b0a6428b-e6ee-4b38-bee6-44efc94efebd" d="M1275.77,577.43q-7.07,1.41-8.46-5.66-1.85-9.25.78-30.66t8.21-49.81q5.58-28.41,12.41-58.68,4-16.85,8.55-33.13t9-28.63q43.37-123.33,59.26-126.49c4.11-.82,6.59.83,7.4,4.94q.8,4-3,16t-10.44,28.23q-6.65,16.23-14.55,32.94t-15,30.75q-7.08,14-11.58,21.34-3.72,6.7-7.48,18.92t-7.17,25.06q-3.42,12.84-5.18,22.37L1290,489.72a224.25,224.25,0,0,1,13.26-23.28q19.62-32.82,43.91-52.56T1390,390.45q10.14-2,17.56,2.93a20.85,20.85,0,0,1,9.16,13.77q3.42,17.22-11,62.3-14.52,44.64-12.67,53.91,1,4.86,6.26,3.8,12.35-2.46,25.12-14.41a210.38,210.38,0,0,0,25.4-29.14q12.63-17.19,24.39-34.22a7.37,7.37,0,0,1,5-2.82q6.61-1.32,7.67,4,1,4.86-4,12.26-23.7,35.46-42,54.24t-41.67,23.43q-17.65,3.53-20.91-12.81a33.36,33.36,0,0,1-.16-12.36q1.07-6.16,4-16.85l12.31-44.2a225.47,225.47,0,0,0,6-27.36q1.51-10.84.46-16.15-1.49-7.49-10.76-5.65-16.34,3.24-35.59,20.61T1315.76,474a253.49,253.49,0,0,0-19,36.82A156.74,156.74,0,0,0,1286,550.61l-2.23,16.5Q1282.4,576.11,1275.77,577.43Z" transform="translate(-8.32 -6.46)"/></svg>